<svg width="77" height="100" viewBox="0 0 77 100" fill="none" xmlns="http://www.w3.org/2000/svg">
<path d="M4.15781 100V87.82L43.0778 50.86C46.3445 47.78 48.7711 45.0733 50.3578 42.74C51.9445 40.4067 52.9711 38.26 53.4378 36.3C53.9978 34.2467 54.2778 32.3333 54.2778 30.56C54.2778 26.08 52.7378 22.6267 49.6578 20.2C46.5778 17.68 42.0511 16.42 36.0778 16.42C31.3178 16.42 26.9778 17.26 23.0578 18.94C19.2311 20.62 15.9178 23.1867 13.1178 26.64L0.377813 16.84C4.20448 11.7067 9.33781 7.73999 15.7778 4.94C22.3111 2.04666 29.5911 0.599995 37.6178 0.599995C44.7111 0.599995 50.8711 1.76666 56.0978 4.09999C61.4178 6.34 65.4778 9.56 68.2778 13.76C71.1712 17.96 72.6178 22.9533 72.6178 28.74C72.6178 31.9133 72.1978 35.0867 71.3578 38.26C70.5178 41.34 68.9312 44.6067 66.5978 48.06C64.2645 51.5133 60.8578 55.3867 56.3778 59.68L22.9178 91.46L19.1378 84.6H76.3978V100H4.15781Z" fill="#FBBA00"/>
</svg>
