<svg width="76" height="100" viewBox="0 0 76 100" fill="none" xmlns="http://www.w3.org/2000/svg">
<path d="M37.2178 99.4C30.3111 99.4 23.5445 98.42 16.9178 96.46C10.3845 94.4067 4.87781 91.6067 0.397813 88.06L8.23781 73.92C11.7845 76.8133 16.0778 79.1467 21.1178 80.92C26.1578 82.6933 31.4311 83.58 36.9378 83.58C43.4711 83.58 48.5578 82.2733 52.1978 79.66C55.8378 76.9533 57.6578 73.3133 57.6578 68.74C57.6578 64.26 55.9778 60.7133 52.6178 58.1C49.2578 55.4867 43.8445 54.18 36.3778 54.18H27.4178V41.72L55.4178 8.39999L57.7978 15.26H5.15781V-6.67572e-06H71.9378V12.18L43.9378 45.5L34.4178 39.9H39.8778C51.9178 39.9 60.9245 42.6067 66.8978 48.02C72.9645 53.34 75.9978 60.2 75.9978 68.6C75.9978 74.1067 74.5978 79.1933 71.7978 83.86C68.9978 88.5267 64.7045 92.3067 58.9178 95.2C53.2245 98 45.9911 99.4 37.2178 99.4Z" fill="#FBBA00"/>
</svg>
